<?xml version="1.0" standalone="no"?>
<!DOCTYPE svg PUBLIC "-//W3C//DTD SVG 20010904//EN"
 "http://www.w3.org/TR/2001/REC-SVG-20010904/DTD/svg10.dtd">
<svg version="1.0" xmlns="http://www.w3.org/2000/svg"
 width="260.000000pt" height="194.000000pt" viewBox="0 0 260.000000 194.000000"
 preserveAspectRatio="xMidYMid meet">

<g transform="translate(0.000000,194.000000) scale(0.100000,-0.100000)"
fill="#000000" stroke="none">
<path d="M621 1486 c-173 -30 -170 -24 -137 -223 15 -83 26 -153 26 -157 0 -3
10 -12 23 -21 20 -13 38 -12 172 11 162 27 185 38 185 93 0 60 -48 304 -61
312 -20 13 -69 9 -208 -15z m135 -70 c21 -18 28 -33 29 -64 0 -23 8 -49 17
-59 23 -25 31 -64 19 -95 -16 -43 -58 -58 -161 -58 l-90 0 0 150 0 150 79 0
c70 0 83 -3 107 -24z"/>
<path d="M634 1365 c-10 -24 9 -37 47 -33 26 2 34 8 34 23 0 16 -8 21 -38 23
-27 2 -39 -1 -43 -13z"/>
<path d="M640 1240 l0 -41 51 3 c36 2 55 8 63 21 19 30 -4 52 -63 55 l-51 3 0
-41z"/>
<path d="M920 1390 c0 -13 7 -20 20 -20 13 0 20 7 20 20 0 13 -7 20 -20 20
-13 0 -20 -7 -20 -20z"/>
<path d="M1760 1369 c0 -17 -4 -28 -10 -24 -6 4 -10 -5 -10 -19 0 -14 5 -26
10 -26 6 0 10 -18 10 -41 0 -27 -4 -38 -11 -33 -8 4 -9 0 -4 -15 4 -13 2 -21
-5 -21 -7 0 -10 -6 -7 -14 4 -10 -5 -16 -29 -21 -20 -3 -32 -10 -28 -16 3 -6
14 -9 23 -6 14 3 16 -7 16 -86 0 -63 4 -91 13 -94 9 -4 12 14 12 69 0 106 5
118 47 118 20 0 32 4 28 10 -3 6 -17 10 -31 10 -13 0 -24 5 -24 10 0 6 11 10
25 10 24 0 25 3 25 59 0 43 4 60 15 65 8 3 15 12 15 21 0 9 -7 18 -15 21 -8 4
-15 17 -15 30 0 19 -5 24 -25 24 -21 0 -25 -5 -25 -31z"/>
<path d="M1025 1325 c-34 -33 -34 -93 -2 -123 31 -29 97 -30 122 -2 25 27 12
36 -31 21 -27 -10 -38 -10 -49 -1 -25 21 -17 25 36 21 63 -4 75 6 60 52 -20
58 -93 76 -136 32z m79 -21 c28 -11 17 -24 -19 -24 -33 0 -43 8 -28 23 8 9 27
9 47 1z"/>
<path d="M1238 1343 l-38 -4 0 -80 c0 -78 0 -79 25 -79 24 0 25 3 25 59 0 63
11 81 35 61 10 -8 15 -31 15 -66 0 -47 2 -54 20 -54 18 0 20 7 20 75 0 63 -3
76 -19 85 -11 5 -26 9 -33 8 -7 -1 -30 -3 -50 -5z"/>
<path d="M1407 1330 c-33 -26 -43 -70 -23 -108 17 -33 34 -42 77 -42 38 0 69
16 69 35 0 18 -9 19 -45 5 -18 -7 -33 -7 -47 1 -30 16 -14 23 47 20 l55 -2 0
35 c0 65 -79 99 -133 56z m83 -35 c11 -13 7 -15 -30 -15 -37 0 -41 2 -30 15 7
8 20 15 30 15 10 0 23 -7 30 -15z"/>
<path d="M1594 1325 c-23 -35 -10 -63 37 -75 56 -15 50 -33 -8 -24 l-47 7 15
-24 c32 -48 129 -32 129 21 0 21 -36 50 -62 50 -17 0 -34 17 -25 26 3 3 21 1
41 -4 28 -8 36 -8 36 3 0 47 -88 62 -116 20z"/>
<path d="M1898 1338 c-8 -7 -18 -21 -21 -30 -5 -14 -1 -18 18 -18 13 0 27 5
30 10 10 16 23 12 36 -11 10 -20 9 -21 -14 -15 -14 3 -37 2 -52 -4 -23 -9 -26
-15 -23 -47 l3 -38 68 -1 67 -2 0 64 c0 51 -4 68 -20 84 -23 23 -68 26 -92 8z
m61 -101 c13 -16 5 -27 -20 -27 -24 0 -35 20 -18 31 19 12 25 11 38 -4z"/>
<path d="M2115 1340 c-3 -5 -19 -7 -35 -3 l-30 6 0 -82 c0 -74 2 -81 20 -81
17 0 20 7 20 44 0 42 18 76 41 76 5 0 9 11 9 25 0 25 -14 33 -25 15z"/>
<path d="M920 1260 c0 -73 2 -80 20 -80 18 0 20 7 20 80 0 73 -2 80 -20 80
-18 0 -20 -7 -20 -80z"/>
<path d="M991 1146 c-17 -21 -27 -151 -12 -160 17 -11 42 13 63 62 10 23 20
42 21 42 1 0 0 -29 -1 -65 -3 -42 0 -65 7 -65 6 0 11 20 11 48 0 26 6 71 14
100 21 81 -5 67 -55 -30 -24 -45 -45 -76 -47 -69 -2 6 1 41 8 78 12 70 10 82
-9 59z"/>
<path d="M1240 1105 c0 -8 4 -15 9 -15 5 0 11 7 15 15 3 9 0 15 -9 15 -8 0
-15 -7 -15 -15z"/>
<path d="M1586 1101 c-10 -11 -14 -25 -10 -36 5 -13 4 -16 -4 -11 -8 4 -10 2
-6 -8 3 -8 13 -17 22 -21 15 -6 15 -8 -2 -21 -26 -18 -17 -26 14 -11 31 16 36
34 11 42 -25 8 -27 24 -6 51 27 36 12 49 -19 15z"/>
<path d="M1660 1105 c0 -8 4 -15 9 -15 5 0 11 7 15 15 3 9 0 15 -9 15 -8 0
-15 -7 -15 -15z"/>
<path d="M1989 1118 c-2 -7 -9 -47 -15 -90 -4 -32 -3 -48 4 -48 6 0 13 15 16
33 13 85 14 107 5 107 -5 0 -9 -1 -10 -2z"/>
<path d="M1402 1103 c-16 -6 -42 -56 -42 -81 0 -11 7 -25 15 -32 13 -11 22
-10 50 3 19 9 35 22 35 27 0 7 -13 4 -30 -6 -40 -24 -50 -10 -16 25 37 38 29
81 -12 64z m12 -38 c-9 -14 -19 -23 -22 -20 -5 4 26 45 35 45 2 0 -4 -11 -13
-25z"/>
<path d="M1160 1073 c-20 -26 -21 -26 -17 -5 3 14 0 22 -8 22 -13 0 -36 -77
-28 -92 9 -17 33 -7 47 20 14 25 15 25 16 5 0 -19 17 -41 24 -32 2 2 6 28 10
57 8 61 -8 70 -44 25z"/>
<path d="M1284 1086 c-9 -23 0 -89 13 -93 13 -5 68 95 58 105 -4 4 -15 -4 -25
-18 l-20 -25 0 23 c0 24 -18 30 -26 8z"/>
<path d="M1486 1078 c-12 -58 -12 -88 0 -88 7 0 16 10 19 23 4 12 17 33 29 46
l21 23 -22 -6 c-17 -6 -23 -3 -23 8 0 24 -19 19 -24 -6z"/>
<path d="M1780 1068 c-31 -51 -25 -87 11 -67 11 5 19 14 19 20 0 6 -4 7 -10 4
-18 -11 -10 25 10 45 24 24 25 30 5 30 -8 0 -24 -15 -35 -32z"/>
<path d="M1896 1091 c-4 -5 -9 -30 -12 -55 -6 -38 -4 -46 10 -46 9 0 16 7 16
17 0 9 12 32 27 52 l28 36 -29 -19 c-24 -15 -28 -16 -23 -3 7 18 -8 33 -17 18z"/>
<path d="M2030 1054 c-11 -39 -11 -47 2 -61 14 -14 18 -13 37 6 32 32 26 101
-9 101 -12 0 -21 -14 -30 -46z m31 -31 c-9 -16 -10 -15 -11 8 0 14 3 29 8 33
12 12 14 -22 3 -41z"/>
<path d="M1230 1030 c0 -27 5 -50 10 -50 6 0 10 15 10 34 0 19 3 41 6 50 4 11
1 16 -10 16 -13 0 -16 -11 -16 -50z"/>
<path d="M1650 1030 c0 -27 5 -50 10 -50 6 0 10 12 10 28 0 15 3 37 6 50 5 16
2 22 -10 22 -13 0 -16 -11 -16 -50z"/>
<path d="M1826 1064 c-21 -20 -20 -27 4 -55 l19 -24 1 25 c0 14 3 35 6 48 7
26 -8 29 -30 6z"/>
<path d="M480 700 c0 -60 0 -60 29 -60 37 0 64 25 52 48 -4 9 -6 23 -4 30 8
20 -17 42 -48 42 -29 0 -29 -1 -29 -60z m54 44 c28 -11 18 -34 -14 -34 -18 0
-30 5 -30 13 0 25 15 32 44 21z m11 -69 c0 -22 -31 -33 -47 -17 -17 17 -1 44
24 40 15 -2 23 -10 23 -23z"/>
<path d="M1222 714 c-2 -55 10 -74 45 -74 30 0 45 31 40 83 l-4 42 -1 -45 c-2
-49 -15 -70 -44 -70 -18 0 -25 17 -31 80 -3 26 -4 23 -5 -16z"/>
<path d="M982 701 c2 -38 8 -56 18 -59 13 -5 13 -3 1 11 -8 10 -11 28 -8 45 3
15 1 34 -4 42 -6 10 -9 -2 -7 -39z"/>
<path d="M1812 698 c-2 -49 1 -58 16 -58 11 0 13 3 5 8 -6 4 -13 30 -16 57
l-3 50 -2 -57z"/>
<path d="M638 719 c-22 -12 -23 -52 -3 -69 18 -15 47 -10 53 10 5 13 3 13 -11
1 -18 -14 -47 -9 -47 9 0 5 14 10 30 10 30 0 42 21 20 35 -6 3 -7 -1 -4 -9 5
-12 -1 -16 -21 -16 -27 0 -28 0 -10 20 20 22 18 24 -7 9z"/>
<path d="M758 718 c6 -7 12 -29 15 -48 4 -34 4 -34 5 6 2 31 -2 44 -14 48 -13
5 -14 3 -6 -6z"/>
<path d="M920 726 c0 -3 9 -10 20 -16 11 -6 20 -8 20 -6 0 3 -9 10 -20 16 -11
6 -20 8 -20 6z"/>
<path d="M1063 719 c25 -15 21 -26 -14 -33 -43 -8 -37 -41 9 -42 31 -1 32 1
32 36 0 25 -5 40 -16 44 -24 9 -31 7 -11 -5z m17 -48 c0 -6 -5 -13 -10 -16
-15 -9 -43 3 -35 15 8 13 45 13 45 1z"/>
<path d="M1133 723 c-8 -3 -12 -21 -11 -46 1 -41 1 -41 5 -7 3 19 10 38 16 42
14 9 6 17 -10 11z"/>
<path d="M1348 723 c-13 -3 -18 -15 -18 -39 0 -43 18 -45 22 -1 4 47 31 42 39
-8 l6 -40 2 41 c1 30 -4 44 -15 48 -9 3 -16 5 -17 5 -1 -1 -10 -3 -19 -6z"/>
<path d="M1558 719 c-11 -6 -18 -22 -18 -39 0 -23 5 -31 24 -36 27 -6 46 1 46
18 0 7 -5 6 -15 -2 -16 -13 -45 -7 -45 10 0 5 14 10 30 10 30 0 42 21 20 35
-6 3 -7 -1 -4 -9 5 -12 -1 -16 -21 -16 -27 0 -28 0 -10 20 20 22 18 24 -7 9z"/>
<path d="M1648 722 c-14 -3 -18 -13 -17 -45 l1 -42 8 34 c4 18 14 37 21 42 17
10 9 17 -13 11z"/>
<path d="M1703 723 c-22 -8 -14 -33 13 -43 29 -12 22 -34 -9 -26 -14 3 -17 2
-10 -5 15 -15 47 -7 51 13 2 12 -5 19 -22 24 -29 7 -32 14 -14 32 13 13 11 14
-9 5z"/>
<path d="M1859 713 c-13 -16 -12 -17 3 -4 18 14 48 9 48 -8 0 -5 -12 -11 -27
-13 -20 -2 -28 -9 -28 -23 0 -12 7 -20 18 -21 13 -2 14 -1 2 3 -22 7 -13 27
13 31 16 2 20 -1 16 -11 -3 -8 -1 -18 5 -22 7 -4 11 6 11 27 0 53 -34 76 -61
41z"/>
<path d="M1958 722 c-14 -3 -18 -13 -17 -45 2 -34 3 -36 6 -12 2 17 12 36 20
42 19 15 15 21 -9 15z"/>
<path d="M2048 719 c-39 -22 -11 -88 32 -74 23 7 28 53 8 73 -14 14 -18 14
-40 1z m40 -38 c-2 -18 -9 -26 -23 -26 -23 0 -32 30 -15 50 18 21 42 7 38 -24z"/>
<path d="M593 680 c0 -25 2 -35 4 -22 2 12 2 32 0 45 -2 12 -4 2 -4 -23z"/>
<path d="M720 680 c0 -22 2 -40 4 -40 2 0 6 18 8 40 2 22 0 40 -4 40 -5 0 -8
-18 -8 -40z"/>
<path d="M804 695 c-4 -15 -1 -32 6 -40 14 -17 46 -20 54 -6 4 5 -3 7 -15 4
-12 -4 -25 0 -30 8 -6 11 0 15 27 19 33 5 34 6 19 25 -12 16 -14 17 -9 3 5
-14 1 -18 -16 -18 -16 0 -20 4 -16 15 3 8 1 15 -4 15 -5 0 -12 -11 -16 -25z"/>
<path d="M901 707 c-1 -10 9 -21 25 -27 29 -12 22 -34 -9 -26 -14 3 -17 2 -10
-5 15 -15 47 -7 51 13 2 12 -5 19 -22 24 -14 3 -27 13 -29 22 -4 15 -5 15 -6
-1z"/>
<path d="M1025 710 c-3 -5 -1 -10 4 -10 6 0 11 5 11 10 0 6 -2 10 -4 10 -3 0
-8 -4 -11 -10z"/>
<path d="M1433 680 c0 -25 2 -35 4 -22 2 12 2 32 0 45 -2 12 -4 2 -4 -23z"/>
<path d="M1461 714 c-1 -7 5 -27 13 -45 l15 -34 16 39 c9 21 14 40 11 43 -3 3
-8 -6 -12 -21 -8 -33 -17 -33 -31 2 -6 15 -11 22 -12 16z"/>
<path d="M1773 680 c0 -25 2 -35 4 -22 2 12 2 32 0 45 -2 12 -4 2 -4 -23z"/>
<path d="M2003 680 c0 -25 2 -35 4 -22 2 12 2 32 0 45 -2 12 -4 2 -4 -23z"/>
</g>
</svg>
