<?xml version="1.0" standalone="no"?>
<!DOCTYPE svg PUBLIC "-//W3C//DTD SVG 20010904//EN"
 "http://www.w3.org/TR/2001/REC-SVG-20010904/DTD/svg10.dtd">
<svg version="1.0" xmlns="http://www.w3.org/2000/svg"
 width="225.000000pt" height="225.000000pt" viewBox="0 0 225.000000 225.000000"
 preserveAspectRatio="xMidYMid meet">

<g transform="translate(0.000000,225.000000) scale(0.100000,-0.100000)"
fill="#000000" stroke="none">
<path d="M531 1743 c-79 -39 -111 -158 -63 -235 91 -147 312 -85 312 88 0 124
-134 203 -249 147z"/>
<path d="M1550 1741 c-67 -35 -103 -119 -81 -191 23 -78 81 -122 161 -122 110
0 184 90 166 200 -17 107 -146 167 -246 113z"/>
<path d="M1084 1480 c-44 -10 -91 -46 -111 -83 -26 -50 -22 -127 9 -174 89
-135 308 -72 308 89 0 57 -17 96 -60 131 -26 22 -92 49 -110 46 -3 -1 -19 -4
-36 -9z"/>
<path d="M535 1317 c-98 -26 -167 -80 -216 -169 l-34 -63 -3 -167 -4 -168 214
0 214 0 17 68 c26 100 87 183 179 245 l37 25 -25 50 c-33 66 -119 145 -181
166 -67 23 -140 28 -198 13z"/>
<path d="M1562 1320 c-108 -23 -215 -117 -246 -216 -5 -17 3 -27 45 -54 84
-54 147 -153 173 -272 l6 -28 216 0 216 0 -4 158 c-3 146 -6 161 -32 218 -65
142 -225 225 -374 194z"/>
<path d="M1039 1037 c-106 -30 -193 -107 -229 -204 -18 -47 -20 -78 -20 -253
l0 -200 336 0 336 0 -4 208 c-3 203 -4 208 -31 264 -70 143 -243 226 -388 185z"/>
</g>
</svg>
