<?xml version="1.0" standalone="no"?>
<!DOCTYPE svg PUBLIC "-//W3C//DTD SVG 20010904//EN"
 "http://www.w3.org/TR/2001/REC-SVG-20010904/DTD/svg10.dtd">
<svg version="1.0" xmlns="http://www.w3.org/2000/svg"
 width="225.000000pt" height="225.000000pt" viewBox="0 0 225.000000 225.000000"
 preserveAspectRatio="xMidYMid meet">

<g transform="translate(0.000000,225.000000) scale(0.100000,-0.100000)"
fill="#000000" stroke="none">
<path d="M669 1789 c-115 -40 -226 -164 -266 -299 -23 -76 -23 -236 1 -315 65
-215 282 -459 608 -682 51 -35 98 -63 105 -63 7 0 38 16 68 36 44 30 53 40 45
54 -21 39 -37 43 -76 16 l-37 -25 -56 38 c-253 172 -459 378 -541 542 -49 95
-63 161 -58 269 3 88 7 104 41 173 84 171 259 250 402 183 56 -26 133 -103
164 -164 11 -22 25 -43 31 -47 21 -13 46 6 70 52 37 72 119 148 181 168 141
47 311 -38 383 -189 49 -103 57 -244 21 -362 -5 -16 0 -26 23 -43 l30 -21 17
47 c22 63 31 222 15 296 -18 88 -72 186 -135 246 -78 74 -149 104 -256 109
-118 6 -184 -23 -272 -118 l-63 -68 -27 39 c-39 54 -107 107 -167 130 -66 25
-175 24 -251 -2z"/>
<path d="M1440 1094 c-139 -51 -224 -168 -223 -309 2 -160 96 -281 252 -321
254 -64 480 207 373 449 -29 66 -103 140 -165 167 -68 30 -176 36 -237 14z
m223 -42 c58 -26 123 -91 150 -151 32 -70 30 -180 -5 -246 -33 -63 -90 -118
-148 -144 -56 -26 -157 -28 -226 -4 -66 22 -145 101 -167 167 -24 69 -22 170
4 226 36 79 118 149 204 171 47 12 138 3 188 -19z"/>
<path d="M1350 801 c-16 -31 4 -63 37 -59 34 4 52 32 37 56 -16 26 -60 28 -74
3z"/>
<path d="M1504 795 c-9 -36 15 -60 51 -51 22 6 26 11 23 39 -3 28 -7 32 -35
35 -28 3 -33 -1 -39 -23z"/>
<path d="M1662 804 c-14 -25 -2 -54 25 -60 34 -9 58 16 49 50 -5 21 -13 26
-36 26 -16 0 -33 -7 -38 -16z"/>
</g>
</svg>
